<svg xmlns="http://www.w3.org/2000/svg" viewBox="0 0 1600 1040" width="1600" height="1040">
  <defs>
    <linearGradient id="sky" x1="0" y1="0" x2="0" y2="1">
      <stop offset="0%" stop-color="#0b3d5c"/>
      <stop offset="45%" stop-color="#1c6e8c"/>
      <stop offset="100%" stop-color="#8fd3c8"/>
    </linearGradient>
    <linearGradient id="sun" x1="0" y1="0" x2="0" y2="1">
      <stop offset="0%" stop-color="#fff6d5"/>
      <stop offset="100%" stop-color="#ffd166"/>
    </linearGradient>
    <linearGradient id="hillsFar" x1="0" y1="0" x2="0" y2="1">
      <stop offset="0%" stop-color="#2f7d6b"/>
      <stop offset="100%" stop-color="#1f5c50"/>
    </linearGradient>
    <linearGradient id="hillsNear" x1="0" y1="0" x2="0" y2="1">
      <stop offset="0%" stop-color="#164f43"/>
      <stop offset="100%" stop-color="#0e3a32"/>
    </linearGradient>
    <linearGradient id="water" x1="0" y1="0" x2="0" y2="1">
      <stop offset="0%" stop-color="#2c8c9c"/>
      <stop offset="100%" stop-color="#0b3d5c"/>
    </linearGradient>
  </defs>

  <!-- extra top space, pure top-gradient blue, for title -->
  <rect x="0" y="0" width="1600" height="400" fill="#0b3d5c"/>

  <g transform="translate(0,400)">
    <rect x="0" y="0" width="1600" height="640" fill="url(#sky)"/>

    <circle cx="1180" cy="200" r="110" fill="url(#sun)" opacity="0.95"/>

    <!-- wind turbines -->
    <g stroke="#eaf6f6" stroke-width="4" fill="#eaf6f6" opacity="0.9">
      <line x1="260" y1="180" x2="260" y2="340"/>
      <circle cx="260" cy="180" r="5"/>
      <g transform="rotate(15 260 180)">
        <line x1="260" y1="180" x2="260" y2="100"/>
        <line x1="260" y1="180" x2="325" y2="215"/>
        <line x1="260" y1="180" x2="205" y2="225"/>
      </g>
    </g>
    <g stroke="#eaf6f6" stroke-width="3" fill="#eaf6f6" opacity="0.75">
      <line x1="360" y1="230" x2="360" y2="345"/>
      <circle cx="360" cy="230" r="4"/>
      <g transform="rotate(-25 360 230)">
        <line x1="360" y1="230" x2="360" y2="165"/>
        <line x1="360" y1="230" x2="410" y2="255"/>
        <line x1="360" y1="230" x2="315" y2="265"/>
      </g>
    </g>

    <!-- birds -->
    <g stroke="#f4fbfb" stroke-width="4" fill="none" stroke-linecap="round" opacity="0.85">
      <path d="M760 140 q14 -16 28 0 q14 -16 28 0"/>
      <path d="M840 170 q10 -12 20 0 q10 -12 20 0"/>
      <path d="M700 190 q10 -12 20 0 q10 -12 20 0"/>
    </g>

    <!-- far hills -->
    <path d="M0 420 Q200 340 420 400 T840 380 T1260 410 T1600 380 L1600 640 L0 640 Z" fill="url(#hillsFar)"/>

    <!-- leaf / growth motif on far hill -->
    <g transform="translate(980,330)" opacity="0.9">
      <path d="M0 60 C 10 10, 60 -10, 90 0 C 70 30, 40 60, 0 60 Z" fill="#4fae8a"/>
      <path d="M0 60 C 20 30, 50 10, 88 2" stroke="#1f5c50" stroke-width="3" fill="none"/>
    </g>

    <!-- near hills -->
    <path d="M0 480 Q180 420 380 470 T760 450 T1140 480 T1600 450 L1600 640 L0 640 Z" fill="url(#hillsNear)"/>

    <!-- sapling growing near foreground, symbolising resilience/regrowth -->
    <g transform="translate(150,470)">
      <path d="M0 130 C -4 90 -4 60 0 30" stroke="#a9714a" stroke-width="6" fill="none" stroke-linecap="round"/>
      <path d="M0 60 C -30 40 -45 15 -40 -10 C -15 -5 5 15 8 45 Z" fill="#5cc29a"/>
      <path d="M0 40 C 25 20 40 -5 38 -30 C 12 -25 -5 -5 -6 25 Z" fill="#3f9a76"/>
    </g>
    <g transform="translate(1420,500)">
      <path d="M0 110 C -3 78 -3 50 0 24" stroke="#a9714a" stroke-width="5" fill="none" stroke-linecap="round"/>
      <path d="M0 50 C -24 34 -36 12 -32 -8 C -12 -4 4 12 6 36 Z" fill="#5cc29a"/>
      <path d="M0 34 C 20 18 32 -4 30 -24 C 10 -20 -4 -4 -5 20 Z" fill="#3f9a76"/>
    </g>

    <!-- water / resilience waves -->
    <path d="M0 560 Q100 540 200 560 T400 560 T600 560 T800 560 T1000 560 T1200 560 T1400 560 T1600 560 L1600 640 L0 640 Z" fill="url(#water)"/>
    <path d="M0 590 Q100 575 200 590 T400 590 T600 590 T800 590 T1000 590 T1200 590 T1400 590 T1600 590 L1600 640 L0 640 Z" fill="#0a2f47" opacity="0.6"/>
  </g>
</svg>
