<?xml version="1.0" encoding="UTF-8" standalone="no"?>
<svg
   viewBox="0 0 1600 1040"
   width="1600"
   height="1040"
   version="1.1"
   id="svg34"
   sodipodi:docname="resilience-PHT.svg"
   inkscape:version="1.4.3 (0d15f75, 2025-12-25)"
   xmlns:inkscape="http://www.inkscape.org/namespaces/inkscape"
   xmlns:sodipodi="http://sodipodi.sourceforge.net/DTD/sodipodi-0.dtd"
   xmlns="http://www.w3.org/2000/svg"
   xmlns:svg="http://www.w3.org/2000/svg">
  <sodipodi:namedview
     id="namedview34"
     pagecolor="#ffffff"
     bordercolor="#000000"
     borderopacity="0.25"
     inkscape:showpageshadow="2"
     inkscape:pageopacity="0.0"
     inkscape:pagecheckerboard="0"
     inkscape:deskcolor="#d1d1d1"
     inkscape:zoom="0.4"
     inkscape:cx="701.25"
     inkscape:cy="616.25"
     inkscape:window-width="1512"
     inkscape:window-height="828"
     inkscape:window-x="0"
     inkscape:window-y="38"
     inkscape:window-maximized="0"
     inkscape:current-layer="svg34" />
  <defs
     id="defs11">
    <linearGradient
       id="sky"
       x1="0"
       y1="0"
       x2="0"
       y2="1011.9289"
       gradientTransform="matrix(1.5811388,0,0,0.63245553,-3.8944725e-7,-152.5)"
       gradientUnits="userSpaceOnUse">
      <stop
         offset="0%"
         stop-color="#0b3d5c"
         id="stop1" />
      <stop
         offset="45%"
         stop-color="#1c6e8c"
         id="stop2" />
      <stop
         offset="100%"
         stop-color="#8fd3c8"
         id="stop3" />
    </linearGradient>
    <linearGradient
       id="sun"
       x1="1070"
       y1="90"
       x2="1070"
       y2="310"
       gradientUnits="userSpaceOnUse"
       gradientTransform="translate(262.5,-460)">
      <stop
         offset="0%"
         stop-color="#fff6d5"
         id="stop4" />
      <stop
         offset="100%"
         stop-color="#ffd166"
         id="stop5" />
    </linearGradient>
    <linearGradient
       id="hillsFar"
       x1="0"
       y1="0"
       x2="0"
       y2="1">
      <stop
         offset="0%"
         stop-color="#2f7d6b"
         id="stop6" />
      <stop
         offset="100%"
         stop-color="#1f5c50"
         id="stop7" />
    </linearGradient>
    <linearGradient
       id="hillsNear"
       x1="0"
       y1="0"
       x2="0"
       y2="1">
      <stop
         offset="0%"
         stop-color="#164f43"
         id="stop8" />
      <stop
         offset="100%"
         stop-color="#0e3a32"
         id="stop9" />
    </linearGradient>
    <linearGradient
       id="water"
       x1="0"
       y1="0"
       x2="0"
       y2="1">
      <stop
         offset="0%"
         stop-color="#2c8c9c"
         id="stop10" />
      <stop
         offset="100%"
         stop-color="#0b3d5c"
         id="stop11" />
    </linearGradient>
  </defs>
  <!-- extra top space, pure top-gradient blue, for title -->
  <rect
     x="0"
     y="0"
     width="1600"
     height="400"
     fill="#0b3d5c"
     id="rect11" />
  <g
     transform="translate(0,400)"
     id="g34">
    <rect
       x="-4.662844e-07"
       y="-152.5"
       width="1600"
       height="640"
       fill="url(#sky)"
       id="rect12"
       style="fill:url(#sky)" />
    <circle
       cx="1442.5"
       cy="-260"
       r="110"
       fill="url(#sun)"
       opacity="0.95"
       id="circle12"
       style="fill:url(#sun)" />
    <!-- wind turbines -->
    <g
       stroke="#eaf6f6"
       stroke-width="4"
       fill="#eaf6f6"
       opacity="0.9"
       id="g16">
      <line
         x1="205"
         y1="237.5"
         x2="205"
         y2="397.5"
         id="line12" />
      <circle
         cx="260"
         cy="180"
         r="5"
         id="circle13" />
      <g
         transform="rotate(15 260 180)"
         id="g15">
        <line
           x1="221.75618"
           y1="249.77579"
           x2="221.75618"
           y2="169.77579"
           id="line13" />
        <line
           x1="221.75618"
           y1="249.77579"
           x2="286.75616"
           y2="284.77579"
           id="line14" />
        <line
           x1="221.75618"
           y1="249.77579"
           x2="166.75618"
           y2="294.77579"
           id="line15" />
      </g>
    </g>
    <g
       stroke="#eaf6f6"
       stroke-width="3"
       fill="#eaf6f6"
       opacity="0.75"
       id="g20">
      <line
         x1="357.5"
         y1="307.5"
         x2="357.5"
         y2="422.5"
         id="line16" />
      <circle
         cx="360"
         cy="230"
         r="4"
         id="circle16" />
      <g
         transform="rotate(-25 360 230)"
         id="g19">
        <line
           x1="324.98132"
           y1="299.18231"
           x2="324.98132"
           y2="234.18231"
           id="line17" />
        <line
           x1="324.98132"
           y1="299.18231"
           x2="374.98132"
           y2="324.18231"
           id="line18" />
        <line
           x1="324.98132"
           y1="299.18231"
           x2="279.98132"
           y2="334.18231"
           id="line19" />
      </g>
    </g>
    <!-- birds -->
    <g
       stroke="#f4fbfb"
       stroke-width="4"
       fill="none"
       stroke-linecap="round"
       opacity="0.85"
       id="g22">
      <path
         d="M760 140 q14 -16 28 0 q14 -16 28 0"
         id="path20" />
      <path
         d="M840 170 q10 -12 20 0 q10 -12 20 0"
         id="path21" />
      <path
         d="M700 190 q10 -12 20 0 q10 -12 20 0"
         id="path22" />
    </g>
    <!-- far hills -->
    <path
       d="M0 420 Q200 340 420 400 T840 380 T1260 410 T1600 380 L1600 640 L0 640 Z"
       fill="url(#hillsFar)"
       id="path23" />
    <!-- leaf / growth motif on far hill -->
    <g
       transform="translate(980,330)"
       opacity="0.9"
       id="g25">
      <path
         d="M0 60 C 10 10, 60 -10, 90 0 C 70 30, 40 60, 0 60 Z"
         fill="#4fae8a"
         id="path24" />
      <path
         d="M0 60 C 20 30, 50 10, 88 2"
         stroke="#1f5c50"
         stroke-width="3"
         fill="none"
         id="path25" />
    </g>
    <!-- near hills -->
    <path
       d="M0 480 Q180 420 380 470 T760 450 T1140 480 T1600 450 L1600 640 L0 640 Z"
       fill="url(#hillsNear)"
       id="path26" />
    <!-- sapling growing near foreground, symbolising resilience/regrowth -->
    <g
       transform="translate(150,470)"
       id="g29">
      <path
         d="M0 130 C -4 90 -4 60 0 30"
         stroke="#a9714a"
         stroke-width="6"
         fill="none"
         stroke-linecap="round"
         id="path27" />
      <path
         d="M0 60 C -30 40 -45 15 -40 -10 C -15 -5 5 15 8 45 Z"
         fill="#5cc29a"
         id="path28" />
      <path
         d="M0 40 C 25 20 40 -5 38 -30 C 12 -25 -5 -5 -6 25 Z"
         fill="#3f9a76"
         id="path29" />
    </g>
    <g
       transform="translate(1420,500)"
       id="g32">
      <path
         d="M0 110 C -3 78 -3 50 0 24"
         stroke="#a9714a"
         stroke-width="5"
         fill="none"
         stroke-linecap="round"
         id="path30" />
      <path
         d="M0 50 C -24 34 -36 12 -32 -8 C -12 -4 4 12 6 36 Z"
         fill="#5cc29a"
         id="path31" />
      <path
         d="M0 34 C 20 18 32 -4 30 -24 C 10 -20 -4 -4 -5 20 Z"
         fill="#3f9a76"
         id="path32" />
    </g>
    <!-- water / resilience waves -->
    <path
       d="M0 560 Q100 540 200 560 T400 560 T600 560 T800 560 T1000 560 T1200 560 T1400 560 T1600 560 L1600 640 L0 640 Z"
       fill="url(#water)"
       id="path33" />
    <path
       d="M0 590 Q100 575 200 590 T400 590 T600 590 T800 590 T1000 590 T1200 590 T1400 590 T1600 590 L1600 640 L0 640 Z"
       fill="#0a2f47"
       opacity="0.6"
       id="path34" />
  </g>
</svg>
